<svg width="24" height="24" viewBox="0 0 24 24" fill="none" xmlns="http://www.w3.org/2000/svg">
<path fill-rule="evenodd" clip-rule="evenodd" d="M4.29303 8.29358C4.48056 8.1061 4.73487 8.00078 5.00003 8.00078C5.26519 8.00078 5.5195 8.1061 5.70703 8.29358L12 14.5869L18.293 8.29358C18.3853 8.19807 18.4956 8.12188 18.6176 8.06947C18.7396 8.01706 18.8709 7.98947 19.0036 7.98832C19.1364 7.98717 19.2681 8.01247 19.391 8.06275C19.5139 8.11304 19.6255 8.18729 19.7194 8.28119C19.8133 8.37509 19.8876 8.48674 19.9379 8.60965C19.9881 8.73255 20.0134 8.86423 20.0123 8.99702C20.0111 9.12981 19.9835 9.26103 19.9311 9.38304C19.8787 9.50505 19.8025 9.6154 19.707 9.70765L12.707 16.708C12.5195 16.8955 12.2652 17.0008 12 17.0008C11.7349 17.0008 11.4806 16.8955 11.293 16.708L4.29303 9.70765C4.10556 9.52012 4.00024 9.2658 4.00024 9.00062C4.00024 8.73544 4.10556 8.48112 4.29303 8.29358Z" fill="#000000"/>
</svg>
